<svg xmlns="http://www.w3.org/2000/svg" viewBox="0 0 721.0 228.0" width="721.0" height="228.0"><defs><linearGradient id="metal" x1="0" y1="0" x2="1" y2="0"><stop offset="0" stop-color="#6E4F22"/><stop offset=".14" stop-color="#A07B38"/><stop offset=".30" stop-color="#C49A52"/><stop offset=".5" stop-color="#F4E2AC"/><stop offset=".70" stop-color="#C49A52"/><stop offset=".86" stop-color="#A07B38"/><stop offset="1" stop-color="#714F22"/></linearGradient><clipPath id="ct"><rect x="0" y="0" width="721.0" height="124.5"/></clipPath><clipPath id="cb"><rect x="0" y="124.5" width="721.0" height="103.5"/></clipPath></defs><path d="M121.3052734375 44.599999999999994V184.0H96.9712890625V44.599999999999994ZM171.0861328125 43.79999999999998V51.41914062499998H47.1904296875V43.79999999999998ZM171.0861328125 50.81914062499999V71.87656249999999L169.0861328125 71.67656249999999V69.0861328125Q169.0861328125 61.25263671875 164.250341796875 56.435888671875Q159.41455078125 51.619140625 151.619140625 51.41914062499998V50.81914062499999ZM171.0861328125 40.19999999999999V46.0L146.6861328125 43.79999999999998Q151.0861328125 43.79999999999998 155.98613281250002 43.19999999999999Q160.88613281250002 42.599999999999994 165.0861328125 41.8Q169.2861328125 41.0 171.0861328125 40.19999999999999ZM97.5712890625 169.4V184.0H81.5712890625V182.0Q81.5712890625 182.0 82.8712890625 182.0Q84.1712890625 182.0 84.1712890625 182.0Q89.37128906250001 182.0 93.0712890625 178.3Q96.7712890625 174.6 96.9712890625 169.4ZM120.7052734375 169.4H121.3052734375Q121.50527343750001 174.6 125.20527343750001 178.3Q128.9052734375 182.0 134.1052734375 182.0Q134.1052734375 182.0 135.4052734375 182.0Q136.7052734375 182.0 136.7052734375 182.0V184.0H120.7052734375ZM66.657421875 50.81914062499999V51.41914062499998Q58.74296875 51.619140625 53.96669921875 56.435888671875Q49.1904296875 61.25263671875 49.1904296875 69.0861328125V71.67656249999999L47.1904296875 71.87656249999999V50.81914062499999ZM47.1904296875 40.19999999999999Q49.1904296875 41.0 53.2904296875 41.8Q57.3904296875 42.599999999999994 62.3904296875 43.19999999999999Q67.3904296875 43.79999999999998 71.5904296875 43.79999999999998L47.1904296875 46.0Z" fill="#ECE5D7" clip-path="url(#ct)"/><path d="M141.5921667875237 44.599999999999994 133.0660975385462 184.0H108.73211316354619L117.2581824125237 44.599999999999994ZM191.4219562586441 43.79999999999998 190.9559496547241 51.41914062499998H67.06024652972408L67.52625313364408 43.79999999999998ZM190.9926472268144 50.81914062499999 189.70472013132527 71.87656249999999 187.71695265535536 71.67656249999999 187.87539012235845 69.0861328125Q188.3545072683908 61.25263671875 183.81332118391737 56.435888671875Q179.27213509944397 51.619140625 171.48895746722408 51.41914062499998L171.52565503931436 50.81914062499999ZM191.64214169118583 40.19999999999999 191.28739849431304 46.0 167.02195625864408 43.79999999999998Q171.4219562586441 43.79999999999998 176.3586538307344 43.19999999999999Q181.29535140282468 42.599999999999994 185.54428149894505 41.8Q189.79321159506543 41.0 191.64214169118583 40.19999999999999ZM110.22508741774325 169.4 109.33211316354618 184.0H93.33211316354618L93.45443840384715 182.0Q93.45443840384715 182.0 94.75443840384715 182.0Q96.05443840384714 182.0 96.05443840384714 182.0Q101.25443840384716 182.0 105.18074009840394 178.3Q109.10704179296073 174.6 109.62508741774326 169.4ZM133.35907179274324 169.4H133.95907179274326Q133.84102616796076 174.6 137.31472447340394 178.3Q140.78842277884715 182.0 145.98842277884717 182.0Q145.98842277884717 182.0 147.28842277884718 182.0Q148.58842277884716 182.0 148.58842277884716 182.0L148.4660975385462 184.0H132.4660975385462ZM86.56393628931437 50.81914062499999 86.5272387172241 51.41914062499998Q78.60055306819399 51.619140625 73.52967860579238 56.435888671875Q68.45880414339078 61.25263671875 67.97968699735844 69.0861328125L67.82124953035535 71.67656249999999L65.80901700632525 71.87656249999999L67.09694410181437 50.81914062499999ZM67.74643856618583 40.19999999999999Q69.69750847006544 41.0 73.74857837394507 41.8Q77.79964827782467 42.599999999999994 82.76295070573438 43.19999999999999Q87.7262531336441 43.79999999999998 91.92625313364408 43.79999999999998L67.39169536931301 46.0Z" fill="#ECE5D7" clip-path="url(#cb)"/><path d="M330.10527343750005 44.0V184.0H305.7712890625V44.0ZM235.3052734375 44.0V184.0H210.9712890625V44.0ZM307.5712890625 110.66660156249999V118.28574218749999H233.3052734375V110.66660156249999ZM211.5712890625 169.4V184.0H195.5712890625V182.0Q195.5712890625 182.0 196.8712890625 182.0Q198.1712890625 182.0 198.1712890625 182.0Q203.3712890625 182.0 207.0712890625 178.3Q210.7712890625 174.6 210.9712890625 169.4ZM211.5712890625 58.599999999999994H210.9712890625Q210.7712890625 53.400000000000006 207.0712890625 49.7Q203.3712890625 46.0 198.1712890625 46.0Q198.1712890625 46.0 196.8712890625 46.0Q195.5712890625 46.0 195.5712890625 46.0V44.0H211.5712890625ZM234.7052734375 169.4H235.3052734375Q235.5052734375 174.6 239.2052734375 178.3Q242.9052734375 182.0 248.1052734375 182.0Q248.1052734375 182.0 249.3052734375 182.0Q250.50527343750002 182.0 250.7052734375 182.0V184.0H234.7052734375ZM234.7052734375 58.599999999999994V44.0H250.7052734375V46.0Q250.50527343750002 46.0 249.3052734375 46.0Q248.1052734375 46.0 248.1052734375 46.0Q242.9052734375 46.0 239.2052734375 49.7Q235.5052734375 53.400000000000006 235.3052734375 58.599999999999994ZM306.3712890625 169.4V184.0H290.3712890625V182.0Q290.5712890625 182.0 291.7712890625 182.0Q292.9712890625 182.0 292.9712890625 182.0Q298.1712890625 182.0 301.9712890625 178.3Q305.7712890625 174.6 305.7712890625 169.4ZM306.3712890625 58.599999999999994H305.7712890625Q305.7712890625 53.400000000000006 301.9712890625 49.7Q298.1712890625 46.0 292.9712890625 46.0Q292.9712890625 46.0 291.7712890625 46.0Q290.5712890625 46.0 290.3712890625 46.0V44.0H306.3712890625ZM329.5052734375 169.4H330.10527343750005Q330.3052734375 174.6 334.0052734375 178.3Q337.7052734375 182.0 342.9052734375 182.0Q342.9052734375 182.0 344.2052734375 182.0Q345.5052734375 182.0 345.5052734375 182.0V184.0H329.5052734375ZM329.5052734375 58.599999999999994V44.0H345.5052734375V46.0Q345.5052734375 46.0 344.2052734375 46.0Q342.9052734375 46.0 342.9052734375 46.0Q337.7052734375 46.0 334.0052734375 49.7Q330.3052734375 53.400000000000006 330.10527343750005 58.599999999999994Z" fill="#ECE5D7" clip-path="url(#ct)"/><path d="M350.428864359614 44.0 341.8660975385462 184.0H317.53211316354617L326.09487998461395 44.0ZM255.628864359614 44.0 247.0660975385462 184.0H222.7321131635462L231.294879984614 44.0ZM323.8173759565231 110.66660156249999 323.3513693526031 118.28574218749999H249.08535372760312L249.5513603315231 110.66660156249999ZM224.22508741774325 169.4 223.33211316354618 184.0H207.33211316354618L207.45443840384715 182.0Q207.45443840384715 182.0 208.75443840384713 182.0Q210.05443840384714 182.0 210.05443840384714 182.0Q215.25443840384716 182.0 219.18074009840393 178.3Q223.10704179296073 174.6 223.62508741774326 169.4ZM231.00190573041692 58.599999999999994H230.4019057304169Q230.51995135519945 53.400000000000006 227.04625304975622 49.7Q223.572554744313 46.0 218.37255474431302 46.0Q218.37255474431302 46.0 217.07255474431304 46.0Q215.77255474431303 46.0 215.77255474431303 46.0L215.894879984614 44.0H231.894879984614ZM247.35907179274326 169.4H247.95907179274326Q247.84102616796073 174.6 251.31472447340394 178.3Q254.78842277884715 182.0 259.98842277884717 182.0Q259.98842277884717 182.0 261.18842277884715 182.0Q262.38842277884714 182.0 262.58842277884713 182.0L262.4660975385462 184.0H246.4660975385462ZM254.13589010541693 58.599999999999994 255.02886435961398 44.0H271.028864359614L270.90653911931304 46.0Q270.706539119313 46.0 269.506539119313 46.0Q268.306539119313 46.0 268.306539119313 46.0Q263.106539119313 46.0 259.1802374247562 49.7Q255.25393573019943 53.400000000000006 254.73589010541693 58.599999999999994ZM319.0250874177433 169.4 318.1321131635462 184.0H302.1321131635462L302.2544384038472 182.0Q302.4544384038471 182.0 303.65443840384717 182.0Q304.85443840384715 182.0 304.85443840384715 182.0Q310.05443840384714 182.0 314.0807400984039 178.3Q318.10704179296073 174.6 318.42508741774327 169.4ZM325.80190573041693 58.599999999999994H325.2019057304169Q325.51995135519945 53.400000000000006 321.94625304975625 49.7Q318.372554744313 46.0 313.172554744313 46.0Q313.172554744313 46.0 311.972554744313 46.0Q310.772554744313 46.0 310.57255474431304 46.0L310.694879984614 44.0H326.694879984614ZM342.15907179274325 169.4H342.75907179274327Q342.6410261679607 174.6 346.11472447340395 178.3Q349.5884227788472 182.0 354.7884227788471 182.0Q354.7884227788471 182.0 356.08842277884713 182.0Q357.38842277884714 182.0 357.38842277884714 182.0L357.2660975385462 184.0H341.2660975385462ZM348.9358901054169 58.599999999999994 349.828864359614 44.0H365.82886435961404L365.70653911931305 46.0Q365.70653911931305 46.0 364.40653911931304 46.0Q363.106539119313 46.0 363.106539119313 46.0Q357.90653911931304 46.0 353.98023742475624 49.7Q350.05393573019944 53.400000000000006 349.5358901054169 58.599999999999994Z" fill="#ECE5D7" clip-path="url(#cb)"/><path d="M420.68115234375 41.19999999999999Q424.36689453125 41.19999999999999 429.564599609375 41.599999999999994Q434.7623046875 42.0 440.083837890625 42.7Q445.40537109375 43.400000000000006 449.560205078125 44.099999999999994Q453.7150390625 44.79999999999998 455.39599609375 45.599999999999994L453.77685546875 71.03828125H451.8958984375Q451.8958984375 60.87158203125 444.526806640625 54.845361328124994Q437.15771484375 48.81914062499999 425.571875 48.81914062499999Q414.0861328125 48.81914062499999 407.12421875 54.82861328124999Q400.1623046875 60.8380859375 399.91943359375 69.30947265625Q399.6765625 74.4857421875 402.91474609374995 79.14047851562499Q406.1529296875 83.79521484374999 411.886328125 87.7904296875L450.4767578125 116.49951171875Q458.581640625 121.856640625 462.3626953125 129.551953125Q466.14375 137.247265625 465.73896484375 146.72841796875Q465.172265625 165.27138671875 452.481640625 176.035693359375Q439.791015625 186.8 418.057421875 186.8Q410.5048828125 186.8 402.831005859375 185.476171875Q395.15712890625 184.15234375 388.81425781250005 181.4904296875Q382.47138671875 178.828515625 378.63330078125 174.9904296875Q377.38564453125 171.06181640625 377.54755859375 165.29033203125Q377.70947265625 159.51884765625 379.116650390625 153.490234375Q380.523828125 147.46162109375 382.65244140625 143.142578125H384.45244140625Q383.61435546875 153.42353515625 387.7810546875 161.7521484375Q391.94775390625 170.08076171875 400.102587890625 174.749853515625Q408.257421875 179.4189453125 419.1623046875 179.180859375Q431.53857421875 178.82373046875 439.0337890625 172.168994140625Q446.52900390625 165.5142578125 446.52900390625 155.2953125Q446.52900390625 149.25244140625 443.355126953125 144.350048828125Q440.18125 139.44765625 433.3048828125 135.31904296875L397.25263671875 107.97666015624999Q388.0953125 102.05283203124999 384.11665039062495 93.53129882812499Q380.13798828125 85.009765625 380.8666015625 75.8095703125Q381.43330078125 66.1142578125 386.24287109375 58.233300781249994Q391.05244140625 50.35234374999999 399.76201171875005 45.77617187499999Q408.47158203125 41.19999999999999 420.68115234375 41.19999999999999ZM455.55791015625 43.19999999999999 455.3150390625 47.400000000000006H434.52900390625V43.19999999999999Z" fill="#ECE5D7" clip-path="url(#ct)"/><path d="M451.18599860228534 41.19999999999999Q454.87174078978535 41.19999999999999 460.04498081985014 41.599999999999994Q465.2182208499149 42.0 470.4969402189346 42.7Q475.77565958795424 43.400000000000006 479.88767973822394 44.099999999999994Q483.9996998884936 44.79999999999998 485.6317268236232 45.599999999999994L482.45671426524825 71.03828125H480.5757572339983Q481.1975791964989 60.87158203125 474.1970668474321 54.845361328124994Q467.19655449836534 48.81914062499999 455.6107146546153 48.81914062499999Q444.12497246711536 48.81914062499999 436.7955033112364 54.82861328124999Q429.4660341553575 60.8380859375 428.7050308535807 69.30947265625Q428.14556555269434 74.4857421875 431.09905327650654 79.14047851562499Q434.0525410003188 83.79521484374999 439.5415816299109 87.7904296875L476.3760886382645 116.49951171875Q484.1533154103744 121.856640625 487.4637046224976 129.551953125Q490.77409383462077 137.247265625 489.78941655898115 146.72841796875Q488.0885807861126 165.27138671875 474.73958258786865 176.035693359375Q461.3905843896248 186.8 439.65699063962484 186.8Q432.1044515771248 186.8 424.5115434207537 185.476171875Q416.9186352643826 184.15234375 410.73857380931054 181.4904296875Q404.5585123542385 178.828515625 400.9551738090387 174.9904296875Q399.94780184087796 171.06181640625 400.46271500991054 165.29033203125Q400.97762817894306 159.51884765625 402.75353169747336 153.490234375Q404.5294352160036 147.46162109375 406.92221248176486 143.142578125H408.72221248176487Q407.2553162745791 153.42353515625 410.9126156828277 161.7521484375Q414.5699150910763 170.08076171875 422.4391751874314 174.749853515625Q430.30843528378637 179.4189453125 441.2278800560448 179.180859375Q453.6259925269326 178.82373046875 461.5282284809213 172.168994140625Q469.43046443491005 165.5142578125 470.0554819053971 155.2953125Q470.42507973472243 149.25244140625 467.55104595668183 144.350048828125Q464.67701217864123 139.44765625 458.05316179701055 135.31904296875L423.67324747723063 107.97666015624999Q414.8782401079268 102.05283203124999 411.42077729695427 93.53129882812499Q407.9633144859817 85.009765625 409.2546358184404 75.8095703125Q410.41432575286814 66.1142578125 415.7059160466928 58.233300781249994Q420.9975063405174 50.35234374999999 429.98696731515133 45.77617187499999Q438.9764282897853 41.19999999999999 451.18599860228534 41.19999999999999ZM485.9404311744844 43.19999999999999 485.44067707610236 47.400000000000006H464.65464191985234L464.91152492448435 43.19999999999999Z" fill="#ECE5D7" clip-path="url(#cb)"/><path d="M641.18125 41.19999999999999 642.78125 60.18603515625 586.428515625 166.076171875Q586.428515625 166.076171875 584.645166015625 169.55712890625Q582.86181640625 173.0380859375 581.059423828125 177.98095703125Q579.25703125 182.923828125 578.980859375 187.6095703125H577.06181640625L570.86162109375 171.7712890625ZM509.76171875 169.4V184.0H487.56171875V182.0Q487.76171875 182.0 489.26171875 182.0Q490.76171875 182.0 490.76171875 182.0Q496.16171875000003 182.0 500.36171875 178.7Q504.56171875 175.4 505.36171875 169.4ZM517.58564453125 172.6Q517.58564453125 172.8 517.58564453125 173.0Q517.58564453125 173.2 517.58564453125 173.6Q517.58564453125 176.8 519.8856445312499 179.5Q522.18564453125 182.2 525.38564453125 182.2H528.4666015625V184.0H516.18564453125V172.6ZM521.41416015625 41.19999999999999H523.333203125L529.35712890625 58.505078125L516.42373046875 184.0H503.5998046875ZM523.333203125 41.19999999999999 586.114453125 154.3041015625 577.06181640625 187.6095703125 518.64267578125 80.27714843749999ZM642.98125 41.19999999999999 661.3956054687501 184.0H634.78544921875L624.3521484375 82.31064453124999L641.18125 41.19999999999999ZM655.23369140625 169.4H659.5146484375Q660.5146484375 175.4 664.674169921875 178.7Q668.83369140625 182.0 674.1146484375 182.0Q674.1146484375 182.0 675.6741699218751 182.0Q677.23369140625 182.0 677.3146484375 182.0V184.0H655.23369140625ZM633.62353515625 172.6H635.02353515625V184.0H622.742578125V182.2H625.82353515625Q629.142578125 182.2 631.383056640625 179.5Q633.62353515625 176.8 633.62353515625 173.6Q633.62353515625 173.2 633.62353515625 173.0Q633.62353515625 172.8 633.62353515625 172.6Z" fill="#ECE5D7" clip-path="url(#ct)"/><path d="M661.6760962585354 41.19999999999999 662.11486060211 60.18603515625 599.2856080172982 166.076171875Q599.2856080172982 166.076171875 597.2893539552606 169.55712890625Q595.2930998932231 173.0380859375 593.1883883679383 177.98095703125Q591.0836768426534 182.923828125 590.5209126981163 187.6095703125H588.6018697293663L583.3703851967966 171.7712890625ZM522.4155171052432 169.4 521.5225428510462 184.0H499.3225428510462L499.4448680913472 182.0Q499.6448680913472 182.0 501.1448680913472 182.0Q502.6448680913472 182.0 502.6448680913472 182.0Q508.04486809134715 182.0 512.4467047378438 178.7Q516.8485413843404 175.4 518.0155171052432 169.4ZM530.0437225020117 172.6Q530.0314899779817 172.8 530.0192574539515 173.0Q530.0070249299214 173.2 529.9825598818612 173.6Q529.7868394973797 176.8 531.9217004229733 179.5Q534.056561348567 182.2 537.2565613485671 182.2H540.3375183798171L540.2274256635462 184.0H527.9464686322962L528.6437225020118 172.6ZM541.9090064147854 41.19999999999999H543.8280493835354L548.7935512447515 58.505078125L528.1845545697962 184.0H515.3606287885461ZM543.8280493835354 41.19999999999999 599.6915561822063 154.3041015625 588.6018697293663 187.6095703125 536.7474612533384 80.27714843749999ZM663.4760962585353 41.19999999999999 673.1564295697963 184.0H646.5462733197962L642.3325599604289 82.31064453124999L661.6760962585354 41.19999999999999ZM667.8874897614933 169.4H672.1684467927432Q672.8014710718404 175.4 676.7591559097189 178.7Q680.7168407475972 182.0 685.9977977788471 182.0Q685.9977977788471 182.0 687.5573192632221 182.0Q689.1168407475972 182.0 689.1977977788472 182.0L689.0754725385461 184.0H666.9945155072962ZM646.0816131270117 172.6H647.4816131270118L646.7843592572962 184.0H634.5034022260462L634.6134949423171 182.2H637.6944519735671Q641.013494942317 182.2 643.4191125323484 179.5Q645.8247301223797 176.8 646.0204505068613 173.6Q646.0449155549214 173.2 646.0571480789515 173.0Q646.0693806029816 172.8 646.0816131270117 172.6Z" fill="#ECE5D7" clip-path="url(#cb)"/><rect x="44" y="120.86" width="633.0" height="7.279999999999999" rx="3.6399999999999997" fill="url(#metal)"/></svg>